<svg width="339" height="70" viewBox="0 0 339 70" fill="none" xmlns="http://www.w3.org/2000/svg">
<path d="M109.851 70L108.159 69.5575V63.1511C115.206 64.7323 119.197 59.9239 118.43 54.5998C118.016 54.9014 117.641 55.1945 117.243 55.4453C114.989 56.9448 112.452 57.1815 109.848 56.9673C107.161 56.7394 104.603 55.7113 102.506 54.0156C100.409 52.32 98.8687 50.0348 98.0833 47.4549C97.7296 46.2379 97.5401 44.9792 97.5196 43.712C97.452 39.5575 97.4943 35.4003 97.4971 31.243C97.4971 31.0739 97.5253 30.9048 97.5478 30.6793H104.163V31.6714C104.163 35.482 104.163 39.2813 104.163 43.1032C104.163 45.6032 105.008 47.7678 107.018 49.3039C109.273 51.0372 111.823 51.2543 114.369 50.0874C116.976 48.8895 118.382 46.6883 118.467 43.8444C118.588 39.8084 118.512 35.7638 118.517 31.7249V30.6567H125.163V31.7137C125.163 39.6054 125.096 47.4747 125.194 55.3552C125.237 58.6133 124.631 61.5925 122.658 64.2193C120.158 67.5733 116.821 69.4589 112.641 69.8281C112.457 69.8643 112.279 69.921 112.108 69.9972L109.851 70Z" fill="white"/>
<path d="M0 41.9307C0.0716461 41.7232 0.130013 41.5114 0.174746 41.2965C1.27396 33.6697 9.39402 27.6268 17.6917 30.4932C18.6781 30.8343 19.566 31.4572 20.5524 31.9786L20.6426 30.5693H25.7469C27.3168 30.5693 27.3168 30.5693 27.3168 32.1167V56.2373H20.6201V54.8816C20.4876 54.8647 20.4115 54.8337 20.3833 54.8563C16.1556 58.3906 8.36528 57.5592 4.16573 53.2103C1.97294 50.916 0.501691 48.3371 0.146561 45.1663C0.114078 45.0647 0.0645142 44.9694 0 44.8844L0 41.9307ZM6.76437 43.4047C6.76437 48.3991 11.274 51.9109 15.8061 50.4256C19.2813 49.2982 21.305 45.3157 20.3495 41.5163C19.5744 38.416 16.8884 36.1302 13.9741 36.071C9.96336 35.9808 6.76437 39.2277 6.76437 43.4047Z" fill="white"/>
<path d="M338.219 33.0949C338.139 33.2635 338.075 33.439 338.027 33.6192C337.15 38.5233 333.044 42.1197 328.334 42.3227C325.863 42.4491 323.429 41.6837 321.475 40.1658C319.521 38.648 318.177 36.4787 317.689 34.0532C316.536 28.3739 320.296 22.3649 326.607 21.804C332.748 21.2601 337.401 25.0594 338.055 31.1755C338.09 31.3037 338.145 31.4255 338.219 31.5363V33.0949ZM321.931 32.0352C321.92 32.8099 322.065 33.5788 322.357 34.2967C322.648 35.0145 323.08 35.6668 323.628 36.2152C324.175 36.7636 324.826 37.1969 325.544 37.4897C326.261 37.7825 327.03 37.9289 327.804 37.9202C330.941 37.9202 333.723 35.1017 333.723 31.9647C333.723 28.8869 330.86 26.1445 327.675 26.1389C324.631 26.1361 321.931 28.9123 321.931 32.0352Z" fill="#F6BD2A"/>
<path d="M333.54 0C333.711 0.0756265 333.889 0.136904 334.07 0.183202C335.203 0.380241 336.225 0.983601 336.944 1.8802C337.664 2.77679 338.032 3.90507 337.979 5.05355C337.936 6.24685 337.45 7.38138 336.617 8.23703C335.784 9.09268 334.663 9.60846 333.472 9.6843C332.28 9.76015 331.103 9.39064 330.168 8.64748C329.233 7.90432 328.608 6.84048 328.413 5.66234C328.219 4.53094 328.44 3.36754 329.036 2.3862C329.631 1.40485 330.561 0.671586 331.655 0.321308C331.936 0.231116 332.218 0.107103 332.5 0L333.54 0ZM333.174 7.60992C334.617 7.59019 335.95 6.20068 335.899 4.79143C335.848 3.42165 334.473 2.12796 333.081 2.14487C331.688 2.16178 330.409 3.53439 330.431 4.94081C330.453 5.65466 330.751 6.33228 331.262 6.83039C331.774 7.32849 332.46 7.60804 333.174 7.60992Z" fill="#F6BD2A"/>
<path d="M65.8539 54.6789V63.5064H59.2051C59.1854 63.2048 59.1488 62.9004 59.1488 62.596C59.1488 52.2315 59.1422 41.867 59.129 31.5024C59.129 30.7415 59.3207 30.5075 60.093 30.5301C61.9898 30.5864 63.8895 30.547 65.8427 30.547V32.1451C69.0304 29.6422 72.5253 29.3266 76.1696 30.1721C79.8139 31.0177 82.6014 33.2725 84.5433 36.4292C87.7959 41.7392 86.7812 48.8305 82.3985 53.1541C77.8917 57.5904 70.4002 58.3683 65.8539 54.6789ZM79.7632 43.4049C79.6843 42.8412 79.6448 42.2578 79.5236 41.7138C78.6978 37.8553 75.045 35.4342 71.3049 36.2516C68.4864 36.8688 66.2683 39.4449 65.9216 42.7341C65.4565 47.1845 68.9486 51.105 73.3145 50.7922C76.8714 50.4991 79.704 47.2634 79.7632 43.4049Z" fill="white"/>
<path d="M36.6544 54.7353V63.498H30.0056V30.5555H33.1821C34.0276 30.5555 34.8731 30.6006 35.6933 30.5555C36.4205 30.5047 36.8207 30.6823 36.677 31.4912C36.6748 31.6626 36.6918 31.8337 36.7277 32.0013C42.2266 27.8328 50.465 29.8762 54.4983 35.1693C58.2751 40.1214 58.0609 47.5256 53.8331 52.4241C49.6702 57.2832 41.7418 58.6981 36.6544 54.7353ZM50.4509 43.498C50.7018 39.9185 47.7424 36.1953 43.8979 36.0684C40.4397 35.9529 37.5028 38.3796 36.7954 41.914C36.0879 45.4484 37.9622 49.0363 41.1161 50.2877C45.6595 52.0915 50.4509 48.6192 50.4509 43.498Z" fill="white"/>
<path d="M195.389 56.1273V22.9001H202.01V31.9982C203.379 31.3697 204.659 30.5101 206.065 30.1803C215.459 27.9762 223.086 35.1183 223.058 43.1115C223.058 47.2688 223.058 51.4261 223.058 55.5833C223.058 55.7496 223.024 55.9159 223.002 56.147H216.387V55.2169C216.387 51.4063 216.387 47.5957 216.387 43.7852C216.387 41.2485 215.564 39.0529 213.509 37.4943C211.254 35.7722 208.701 35.5552 206.156 36.7361C203.551 37.9481 202.159 40.1521 202.077 42.996C201.962 47.0039 202.035 51.0202 202.029 55.0337V56.1358L195.389 56.1273Z" fill="white"/>
<path d="M266.945 57.0294C263.334 57.0223 259.874 55.5812 257.326 53.0232C254.779 50.4652 253.351 46.9998 253.358 43.3893C253.365 39.7788 254.806 36.319 257.364 33.7711C259.922 31.2231 263.388 29.7957 266.998 29.8028C274.65 29.8028 280.589 35.8174 280.645 43.5006C280.702 51.088 274.075 57.3479 266.945 57.0294ZM260.096 43.3428C260.096 43.6021 260.076 43.8642 260.096 44.1207C260.121 44.4366 260.169 44.7503 260.24 45.0592C260.882 47.7594 262.444 49.7182 265.132 50.4961C267.821 51.274 270.206 50.5327 272.077 48.3907C273.732 46.4995 274.214 44.2757 273.743 41.8518C273.126 38.6725 270.335 35.8484 266.671 36.0964C262.875 36.3586 260.096 39.4955 260.096 43.3428Z" fill="white"/>
<path d="M238.258 57.0293C236.466 57.0442 234.688 56.7029 233.029 56.0251C231.37 55.3473 229.862 54.3466 228.593 53.0811C227.324 51.8156 226.319 50.3104 225.636 48.6532C224.953 46.9959 224.607 45.2195 224.617 43.4272C224.617 35.9103 230.727 29.8759 238.269 29.7801C245.685 29.6843 252.207 36.1273 251.95 43.9148C251.711 51.1133 245.414 57.3167 238.258 57.0293ZM245.245 43.4498C245.161 42.8241 245.118 42.1871 244.983 41.5727C243.985 36.9616 238.782 34.6476 234.837 37.0631C233.34 38.0182 232.227 39.4701 231.695 41.1639C231.162 42.8577 231.244 44.6849 231.925 46.3246C233.052 48.974 235.025 50.6397 237.982 50.7581C242.024 50.916 245.189 47.6634 245.245 43.4498Z" fill="white"/>
<path d="M159.591 38.9178C159.577 38.7007 159.56 38.5288 159.558 38.3541C159.507 36.3811 158.712 35.327 156.801 34.9324C155.257 34.6139 153.701 34.5942 152.238 35.358C151.373 35.8118 150.733 36.4685 150.755 37.517C150.778 38.5204 151.474 39.1432 152.311 39.3997C154.18 39.9634 156.094 40.3918 157.985 40.8935C159.374 41.2628 160.778 41.5925 162.134 42.066C168.053 44.1376 167.489 51.3473 163.915 54.2419C161.943 55.8185 159.537 56.7574 157.018 56.9336C154.298 57.1703 151.598 57.0378 148.991 56.1049C145.096 54.7126 142.875 51.2374 143.444 47.3281H150.144C150.161 47.5593 150.192 47.8045 150.197 48.0525C150.234 50.0818 151.02 51.1162 152.999 51.6517C154.453 52.0613 155.995 52.0368 157.435 51.5812C157.984 51.3997 158.491 51.1124 158.929 50.7357C159.173 50.541 159.367 50.2907 159.495 50.0057C159.623 49.7206 159.68 49.4092 159.663 49.0974C159.645 48.7856 159.553 48.4825 159.395 48.2134C159.236 47.9443 159.016 47.7171 158.752 47.5508C158.007 47.1173 157.203 46.7972 156.364 46.601C154.194 46.0373 151.973 45.6342 149.823 45.0001C147.452 44.2983 145.443 43.0271 144.507 40.5638C143.137 36.973 144.634 33.106 148.112 31.1867C150.93 29.6308 153.98 29.4166 157.103 29.7069C159.228 29.9071 161.254 30.4369 162.993 31.7419C165.364 33.5175 166.108 35.9894 165.972 38.898L159.591 38.9178Z" fill="white"/>
<path d="M313.022 38.9459H306.705C306.688 38.7204 306.663 38.5259 306.66 38.3343C306.632 36.3613 305.849 35.2565 303.915 34.9521C302.696 34.7997 301.461 34.831 300.251 35.0451C299.622 35.1381 298.98 35.6088 298.498 36.0626C297.565 36.9504 297.652 38.2666 298.746 38.9628C299.499 39.4375 300.323 39.7896 301.187 40.0056C303.25 40.5355 305.352 40.9132 307.421 41.429C309.228 41.8799 310.967 42.5564 312.23 44.0079C314.747 46.8968 314.095 51.7954 310.908 54.363C309.039 55.838 306.771 56.7213 304.397 56.8997C301.297 57.2012 298.222 57.0603 295.316 55.7723C291.934 54.2644 290.119 51.133 290.631 47.2773H297.339C297.339 47.6691 297.339 47.9763 297.339 48.2864C297.339 49.8478 298.072 50.9216 299.538 51.4656C301.2 52.091 303.028 52.1199 304.71 51.5474C305.252 51.3563 305.748 51.0506 306.161 50.6511C307.185 49.6618 307.03 48.2046 305.806 47.4972C305.096 47.1095 304.338 46.8166 303.551 46.6263C301.187 46.0034 298.76 45.5806 296.438 44.8224C293.602 43.8923 291.578 42.0575 291.249 38.8698C290.885 35.358 292.339 32.5592 295.589 31.0485C300.014 28.9882 304.56 29.0305 308.98 31.0682C311.984 32.4521 313.532 35.6793 313.022 38.9459Z" fill="white"/>
<path d="M187.711 47.424L193.348 50.6794C190.474 55.3891 184.808 58.061 178.529 56.6517C172.971 55.3862 168.427 49.9578 168.244 44.3772C168.024 37.6608 171.846 32.0942 177.895 30.3158C183.735 28.6021 190.22 30.9246 193.222 35.8795L187.585 39.1376C187.407 38.946 187.246 38.7938 187.108 38.6219C185.256 36.3671 182.548 35.5215 179.899 36.3417C178.581 36.7882 177.418 37.6024 176.548 38.6881C175.678 39.7738 175.137 41.0858 174.989 42.4691C174.769 45.1382 175.502 47.4409 177.61 49.1884C178.276 49.7556 179.049 50.1842 179.883 50.4491C180.717 50.714 181.596 50.8099 182.468 50.7312C183.339 50.6525 184.186 50.4007 184.959 49.9906C185.733 49.5805 186.416 49.0203 186.97 48.3428C187.201 48.0582 187.41 47.782 187.711 47.424Z" fill="white"/>
<path d="M288.78 56.2062H282.176V22.9058H288.78V56.2062Z" fill="white"/>
<path d="M88.1876 22.8916H94.7829V56.2202H88.1876V22.8916Z" fill="white"/>
<path d="M327.996 13.9345C327.991 14.8677 327.802 15.7908 327.439 16.6507C327.077 17.5106 326.548 18.2904 325.883 18.9452C325.218 19.6 324.43 20.1169 323.564 20.4662C322.699 20.8155 321.773 20.9904 320.84 20.9807C318.941 20.983 317.118 20.2338 315.769 18.8968C314.421 17.5597 313.656 15.7434 313.641 13.8443C313.629 12.9031 313.804 11.9689 314.157 11.0961C314.509 10.2233 315.032 9.4294 315.694 8.76068C316.357 8.09197 317.146 7.56182 318.015 7.20116C318.884 6.84049 319.817 6.65651 320.758 6.65996C324.997 6.67405 327.996 9.69547 327.996 13.9345ZM324.896 13.8161C324.896 11.6402 322.923 9.69547 320.73 9.70675C318.664 9.70675 316.759 11.6797 316.753 13.8246C316.749 14.3584 316.851 14.8878 317.053 15.3816C317.256 15.8755 317.555 16.3239 317.934 16.7006C318.312 17.0773 318.762 17.3747 319.256 17.5753C319.751 17.776 320.281 17.8759 320.814 17.8691C321.892 17.864 322.924 17.4356 323.689 16.6764C324.453 15.9171 324.889 14.8879 324.901 13.8105L324.896 13.8161Z" fill="#F6BD2A"/>
</svg>
