<svg width="112" height="37" viewBox="0 0 112 37" fill="none" xmlns="http://www.w3.org/2000/svg">
<path fill-rule="evenodd" clip-rule="evenodd" d="M39.5261 13.4774V19.0534L39.5261 19.0535C39.3362 19.168 39.1464 19.2826 38.8806 19.3972C38.8452 19.415 38.7954 19.4369 38.7383 19.462L38.7382 19.4621C38.5505 19.5448 38.2845 19.6619 38.1972 19.7791C38.1592 19.8555 38.1212 20.2374 38.1592 20.2756C38.1877 20.3042 38.3016 20.2899 38.3728 20.2809L38.3729 20.2809L38.3731 20.2809C38.3967 20.2779 38.4155 20.2756 38.425 20.2756H39.8299H43.8926C44.0304 20.2756 44.1724 20.2797 44.3158 20.2839C44.6068 20.2925 44.9037 20.3012 45.1835 20.2756C45.2595 20.2756 45.2974 20.2756 45.3354 20.2374C45.3734 20.1992 45.3734 19.8555 45.3354 19.8173C45.3354 19.7958 45.3115 19.7864 45.2837 19.7755C45.2621 19.767 45.2381 19.7576 45.2215 19.7409C45.0886 19.6645 44.9367 19.5881 44.7849 19.5117C44.633 19.4354 44.4811 19.359 44.3482 19.2826C44.2343 19.2444 44.0824 19.168 44.0444 19.0916C43.9919 18.9859 44.0121 18.7705 44.0295 18.5845V18.5845V18.5844L44.0295 18.5843C44.0372 18.5016 44.0444 18.4248 44.0444 18.366V10.7658V9.35273C44.0444 9.29861 44.0383 9.24142 44.0322 9.18378C44.0167 9.03802 44.0008 8.88933 44.0824 8.77986C44.2343 8.5889 44.652 8.43613 44.8798 8.35975C45.1456 8.28336 45.4493 8.20698 45.7531 8.20698C46.1328 8.20698 46.5884 8.24517 46.9301 8.43613C47.5756 8.77986 47.6895 9.54369 47.6895 10.193C47.7148 11.6711 47.7064 13.1663 47.6979 14.6557V14.656V14.6562V14.6564V14.6566V14.6568V14.657V14.6572V14.6574V14.6576V14.6578V14.658V14.6582V14.6585V14.6587C47.6937 15.4003 47.6895 16.1405 47.6895 16.8765V18.4424C47.6895 18.4732 47.695 18.526 47.7015 18.5891L47.7015 18.5893C47.7194 18.7609 47.745 19.0079 47.6895 19.0916C47.6404 19.1657 47.4801 19.2398 47.3422 19.3036C47.2669 19.3384 47.1982 19.3702 47.1579 19.3972C47.0979 19.4425 46.9902 19.4938 46.8751 19.5487C46.6991 19.6326 46.5054 19.7249 46.4365 19.8173C46.3985 19.8555 46.3985 20.2756 46.4365 20.3138C46.465 20.3424 46.5789 20.3281 46.6501 20.3191C46.6738 20.3161 46.6928 20.3138 46.7023 20.3138H50.1955H52.1699C52.2925 20.3138 52.423 20.3217 52.5576 20.3299L52.5576 20.3299C52.8399 20.3472 53.1401 20.3655 53.4229 20.3138C53.459 20.3138 53.4836 20.3176 53.5017 20.3204C53.5406 20.3265 53.5488 20.3277 53.5747 20.2756C53.6127 20.2374 53.6127 19.8937 53.5747 19.8555C53.5747 19.8325 53.5337 19.8096 53.4927 19.7867L53.4927 19.7867C53.4654 19.7714 53.438 19.7562 53.4229 19.7409C53.29 19.6645 53.1476 19.5881 53.0052 19.5117C52.8628 19.4354 52.7204 19.359 52.5875 19.2826C52.5539 19.2488 52.5055 19.2225 52.4586 19.197C52.3995 19.1649 52.3429 19.1342 52.3218 19.0916C52.2681 18.9567 52.2903 18.6881 52.3079 18.4749C52.3152 18.3864 52.3218 18.3074 52.3218 18.2514V16.5328C52.3218 15.8184 52.326 15.1084 52.3302 14.3997C52.3386 12.9866 52.347 11.5792 52.3218 10.1548C52.3218 8.47432 51.7522 6.83208 50.0056 6.41197C47.9933 5.91548 45.4873 6.7175 44.0444 8.16879V7.93964V0.263099C44.0444 0.253025 44.0471 0.23498 44.0503 0.21317C44.0592 0.15229 44.0724 0.0620664 44.0444 0.0339482C44.0169 -0.0214557 43.7696 0.00351358 43.5924 0.0214094L43.5924 0.0214115L43.5924 0.0214141L43.5923 0.0214166L43.5923 0.0214191L43.5923 0.0214217L43.5923 0.0214242L43.5922 0.0214267L43.5922 0.0214293L43.5922 0.0214318L43.5922 0.0214343L43.5921 0.0214368L43.5921 0.0214393L43.5921 0.0214418L43.5921 0.0214444C43.5251 0.0282058 43.4682 0.0339482 43.4369 0.0339482C43.2091 0.07214 42.9813 0.11988 42.7535 0.167619C42.5257 0.215359 42.2979 0.263099 42.07 0.30129C41.3107 0.415866 40.5133 0.568633 39.7539 0.7214C39.5901 0.7626 39.4152 0.792688 39.2352 0.823653C39.0815 0.850095 38.9241 0.877175 38.7667 0.912358C38.6998 0.925815 38.6188 0.93453 38.5352 0.943516C38.3817 0.960033 38.2196 0.977463 38.1212 1.02693H38.0073V1.33247C38.079 1.47663 38.5226 1.58678 38.7 1.63083L38.7287 1.638C38.803 1.67001 38.8921 1.69606 38.9836 1.72281C39.2195 1.79181 39.4714 1.86546 39.5261 2.05811C39.578 2.21471 39.559 2.42481 39.5417 2.61529C39.5337 2.70354 39.5261 2.78758 39.5261 2.86014V4.34961V13.4774ZM26.0279 19.4353C25.8285 19.5403 25.6292 19.6454 25.4394 19.7408C25.4394 19.773 25.4364 19.8202 25.4329 19.8749C25.424 20.0149 25.412 20.2038 25.4394 20.3137C25.4667 20.3412 25.6118 20.3291 25.7194 20.3202L25.7195 20.3202L25.7199 20.3202L25.72 20.3202C25.7618 20.3167 25.7978 20.3137 25.819 20.3137H26.5784H28.8186H33.4888H34.1723C34.1818 20.3137 34.2008 20.3161 34.2245 20.3191C34.2957 20.328 34.4096 20.3424 34.4381 20.3137C34.514 20.1991 34.4381 19.8172 34.3621 19.7408C34.2161 19.5939 33.9764 19.4941 33.7531 19.4011C33.6281 19.3491 33.5083 19.2992 33.4129 19.2443C33.3679 19.2249 33.3131 19.2034 33.2528 19.1796C32.9567 19.0629 32.5268 18.8935 32.4637 18.6715C32.4119 18.4894 32.4307 18.2541 32.4479 18.0381L32.4479 18.0379C32.456 17.9368 32.4637 17.84 32.4637 17.7549V8.55065V4.46413C32.4637 4.36516 32.4557 4.25818 32.4475 4.14837V4.14831V4.14825V4.14819V4.14813V4.14808V4.14803V4.14799V4.14795V4.14791V4.14788V4.14784V4.1478V4.14777V4.14773C32.4304 3.91874 32.4124 3.67752 32.4637 3.47115C32.4827 3.43296 32.4827 3.41386 32.4827 3.39954C32.4827 3.38522 32.4827 3.37567 32.5016 3.35657C32.5576 3.32846 32.7369 3.34174 32.858 3.35071C32.9014 3.35392 32.9372 3.35657 32.9573 3.35657H33.5648C33.6011 3.35657 33.6418 3.35439 33.6842 3.35211C33.8192 3.34486 33.9717 3.33666 34.0584 3.39477C34.1727 3.45227 34.2655 3.61797 34.3368 3.74527C34.3602 3.78708 34.3813 3.82474 34.4001 3.85307L35.767 5.68627C36.1136 6.11535 36.4415 6.56326 36.7638 7.00356L36.7639 7.00367L36.7641 7.00393L36.7643 7.00419L36.7646 7.00469L36.7652 7.00542C36.9014 7.19154 37.0366 7.37628 37.1719 7.55767C37.2067 7.6044 37.2416 7.65829 37.2775 7.71385L37.2775 7.71388C37.359 7.83994 37.4462 7.97464 37.5516 8.05416C37.672 8.14503 37.7925 8.13981 37.9319 8.13375H37.9319C37.9683 8.13218 38.0059 8.13054 38.0452 8.13054V7.90139C37.9692 6.79383 37.9313 5.72446 37.8933 4.6169C37.8743 4.36864 37.8648 4.11084 37.8553 3.85303C37.8458 3.59525 37.8363 3.33747 37.8173 3.08923C37.8173 3.06264 37.8194 3.02989 37.8216 2.99478C37.8288 2.87859 37.8377 2.73664 37.7794 2.70731C37.7229 2.67892 37.5196 2.69275 37.3877 2.70171C37.3422 2.7048 37.3053 2.70731 37.2858 2.70731H36.2986H33.261H25.819H23.0853C23.0408 2.70731 22.9694 2.70313 22.885 2.69819L22.8849 2.69819C22.6088 2.68202 22.1942 2.65775 22.136 2.74551C22.1091 2.77258 22.1204 2.89564 22.1292 2.99219V2.99221V2.99223V2.99224V2.99226V2.99227V2.99229V2.99232V2.99235L22.1292 2.99239C22.1328 3.03194 22.136 3.06704 22.136 3.08923C22.136 3.20378 22.1265 3.31834 22.117 3.43289L22.117 3.43296C22.1075 3.54753 22.098 3.66211 22.098 3.77668C22.0791 4.08222 22.0696 4.38777 22.0601 4.69331C22.0506 4.99883 22.0411 5.30436 22.0221 5.60989L21.9082 8.13054C22.2994 8.13054 22.3242 8.09703 22.513 7.84171L22.5537 7.78682C22.7654 7.4674 22.9955 7.16654 23.2313 6.85838C23.3338 6.72438 23.4373 6.58899 23.5409 6.45011C24.2622 5.45719 24.9836 4.50246 25.705 3.54774L25.7051 3.54753C25.7395 3.50605 25.7664 3.47083 25.7892 3.44096C25.8924 3.30581 25.912 3.28019 26.1608 3.28019H26.9961C27.0045 3.28019 27.0257 3.27834 27.0542 3.27586C27.1549 3.26707 27.3462 3.25041 27.3758 3.28019C27.4051 3.30965 27.3892 3.47542 27.3804 3.56723C27.3778 3.59446 27.3758 3.61518 27.3758 3.62392V4.46413V10.8422V17.3729V18.2895C27.3758 18.3252 27.3795 18.3721 27.3834 18.4219L27.3834 18.422V18.422V18.422C27.3921 18.5322 27.4019 18.6571 27.3758 18.7097C27.3177 18.8266 26.9927 18.9658 26.7753 19.059L26.7753 19.059L26.7752 19.0591L26.7752 19.0591C26.7086 19.0876 26.652 19.1118 26.6164 19.1298C26.4266 19.2252 26.2272 19.3303 26.0279 19.4353ZM57.5615 13.783C57.6374 15.4634 58.169 17.3348 59.6877 18.2514C60.4851 18.7097 61.4723 18.8625 62.3836 18.7861C63.3738 18.683 64.2105 18.2402 65.0593 17.791C65.1544 17.7407 65.2496 17.6903 65.3452 17.6403C65.3452 17.6876 65.3488 17.7458 65.3527 17.8082C65.3614 17.9476 65.3714 18.1077 65.3452 18.2132C65.2692 18.366 65.0794 18.5569 64.9655 18.6715C64.8136 18.8243 64.6237 19.0152 64.4339 19.168C63.7884 19.7027 63.067 20.0846 62.3076 20.3519C60.8648 20.8484 59.1941 20.8102 57.7133 20.4283C56.5363 20.1228 55.4731 19.5499 54.6758 18.6333C53.8784 17.7167 53.4228 16.5328 53.2329 15.3106C52.8153 12.6754 53.3089 9.65825 55.4731 7.90143C57.3716 6.37376 60.4091 6.06822 62.6493 6.98483C65.3831 8.09239 65.8388 11.2241 65.8388 13.8211H58.5866C58.2449 13.783 57.9032 13.783 57.5615 13.783ZM59.8017 12.981C59.0044 13.0574 58.245 13.0955 57.4856 13.1337C57.4856 11.4151 57.6375 9.19999 58.7386 7.71051C59.2702 6.94668 60.1434 6.79391 60.713 7.63413C61.5018 8.80533 61.5474 10.4624 61.5851 11.8289L61.5863 11.8734C61.5863 11.9061 61.5898 11.9667 61.5941 12.0426C61.6101 12.3214 61.6379 12.8063 61.5483 12.8664C61.4724 12.9046 61.2825 12.9046 61.2066 12.9046C60.9788 12.9237 60.7415 12.9332 60.5041 12.9428L60.5041 12.9428C60.2668 12.9523 60.0295 12.9619 59.8017 12.981ZM0 27.0737C0 24.935 0.417663 22.7199 1.59471 20.9248C2.73379 19.168 4.55632 18.0223 6.53072 17.4494C8.92279 16.7619 11.5806 16.8383 14.0486 17.2966L14.0487 17.2966C14.5803 17.4112 15.1118 17.5258 15.6054 17.6785C15.6297 17.6908 15.6815 17.707 15.7417 17.7258L15.7417 17.7258L15.7419 17.7259L15.7419 17.7259C15.8695 17.7658 16.0352 17.8176 16.061 17.8695V17.9841C16.1433 18.3152 16.1265 18.7062 16.1109 19.0705C16.1048 19.2104 16.099 19.3464 16.099 19.4736C16.118 20.0655 16.1275 20.667 16.137 21.2686C16.1465 21.8701 16.1559 22.4716 16.1749 23.0636C16.1268 23.0636 16.0673 23.0674 16.0048 23.0714C15.87 23.0801 15.7212 23.0897 15.6434 23.0636C15.5807 23.0321 15.5181 22.8967 15.4768 22.8074C15.468 22.7884 15.4602 22.7714 15.4535 22.758L15.4535 22.758C15.1498 22.2997 14.846 21.8414 14.5802 21.3449C14.2575 20.8294 13.9253 20.3138 13.593 19.7982C13.2608 19.2826 12.9286 18.767 12.6058 18.2514C12.2641 17.6785 11.3149 17.6785 10.7073 17.6785C10.0239 17.6785 9.34045 17.7931 8.77091 18.1368C7.47996 18.9389 6.87245 20.5047 6.53072 21.9178C5.99915 24.1711 6.03712 26.539 6.15103 28.8305C6.26494 30.5873 6.41681 32.4587 7.10026 34.0628C7.51793 35.0558 8.23934 35.9342 9.34045 36.1633C9.68218 36.2397 10.0239 36.2397 10.4036 36.2015C10.4477 36.1941 10.5131 36.1868 10.5908 36.178C10.9144 36.1414 11.4508 36.0808 11.5427 35.896C11.5696 35.8418 11.5583 35.7301 11.5495 35.6424C11.5459 35.6064 11.5427 35.5745 11.5427 35.5523V34.903V30.8547V29.2888C11.5427 29.2298 11.5464 29.1782 11.5497 29.132C11.5614 28.969 11.5683 28.8732 11.3908 28.7541C11.3212 28.7141 11.2489 28.6741 11.1755 28.6334L11.1754 28.6333C10.9684 28.5187 10.7516 28.3986 10.5555 28.2577C10.4889 28.2175 10.3989 28.1773 10.3052 28.1354L10.3052 28.1354C10.1319 28.058 9.94597 27.9749 9.87202 27.8757C9.79609 27.7994 9.75812 27.3792 9.83405 27.3029C9.85999 27.2507 9.86821 27.252 9.90711 27.258C9.92516 27.2608 9.94982 27.2647 9.98593 27.2647C10.2177 27.2129 10.5018 27.2313 10.7673 27.2486H10.7673H10.7673H10.7673H10.7674H10.7674H10.7674H10.7675H10.7675H10.7675L10.7676 27.2486L10.7679 27.2486C10.8937 27.2568 11.0152 27.2647 11.125 27.2647H12.9855H17.0103C17.1354 27.2647 17.2647 27.2605 17.3954 27.2563L17.3955 27.2563C17.6612 27.2478 17.9328 27.2391 18.1873 27.2647H18.3392C18.3772 27.3029 18.3772 27.8375 18.3392 27.9139C18.2799 28.0033 18.0358 28.116 17.8592 28.1974C17.8094 28.2204 17.7651 28.2409 17.7317 28.2577C17.662 28.2977 17.5898 28.3377 17.5162 28.3785C17.3093 28.4931 17.0925 28.6132 16.8963 28.7541C16.6261 28.89 16.6263 28.905 16.6297 29.1487C16.6301 29.1789 16.6306 29.2127 16.6306 29.2506V32.8407V34.7884V35.4759C16.6306 35.4981 16.6338 35.53 16.6374 35.566C16.6462 35.6537 16.6575 35.7655 16.6306 35.8196C16.5755 35.9582 16.1406 36.0565 15.819 36.1292C15.6974 36.1567 15.592 36.1806 15.5295 36.2015C14.884 36.3925 14.2005 36.5453 13.5171 36.6598C12.1882 36.889 10.8592 36.9654 9.5303 36.9272C7.40402 36.8508 5.16383 36.3925 3.41724 35.094C1.89847 33.9864 0.911264 32.306 0.455632 30.4728C0.113908 29.4034 0 28.2195 0 27.0737ZM17.4978 23.4951C17.5011 23.5398 17.5039 23.5775 17.5039 23.5982C17.7555 23.7247 18.0071 23.8251 18.3018 23.9426L18.3019 23.9426L18.302 23.9427L18.302 23.9427L18.3023 23.9428C18.3633 23.9671 18.4261 23.9922 18.4911 24.0183C18.5351 24.0478 18.63 24.083 18.7343 24.1217C18.9002 24.1832 19.09 24.2535 19.1366 24.3239C19.1639 24.3788 19.152 24.5128 19.1431 24.6121C19.1396 24.6508 19.1366 24.6843 19.1366 24.7058V25.5842V28.1812V32.726C19.1366 33.4899 19.2126 34.2919 19.5543 35.0175C20.0099 36.0487 20.9212 36.6598 21.9843 36.8889C23.4271 37.1945 24.9839 36.8507 26.2369 36.0869C26.5786 35.896 26.9203 35.6286 27.2241 35.3613C27.2452 35.3471 27.2677 35.3303 27.2907 35.3131C27.3917 35.2374 27.504 35.1534 27.5658 35.2467C27.6199 35.3283 27.5969 35.5069 27.5792 35.6443C27.5721 35.6997 27.5658 35.7484 27.5658 35.7814V36.4306C27.5658 36.4508 27.5632 36.4869 27.56 36.5305C27.5511 36.6523 27.5379 36.8327 27.5658 36.8889C27.6038 36.9271 27.8316 36.9271 27.9075 36.9271C28.0594 36.9653 28.2113 36.9653 28.3632 36.9271C28.6994 36.8915 29.0439 36.8476 29.3929 36.8032L29.393 36.8032L29.3931 36.8031H29.3931H29.3931C29.7927 36.7522 30.198 36.7006 30.6034 36.6598C31.0139 36.6059 31.416 36.5605 31.8137 36.5156L31.8141 36.5155C32.2623 36.4649 32.7048 36.415 33.1473 36.3543C33.1784 36.3386 33.2605 36.3358 33.3518 36.3326H33.3519C33.4834 36.3281 33.6341 36.3229 33.6789 36.2779C33.7168 36.2779 33.7168 36.0105 33.6789 35.9341C33.6469 35.8697 33.6148 35.8596 33.5373 35.8352C33.5229 35.8306 33.5069 35.8256 33.489 35.8196C33.2992 35.7432 33.0998 35.6573 32.9005 35.5713C32.7011 35.4854 32.5018 35.3995 32.312 35.3231C32.2753 35.3083 32.2471 35.2979 32.2253 35.2897L32.2252 35.2897L32.2252 35.2897C32.1811 35.2733 32.1627 35.2664 32.152 35.2533C32.1444 35.2439 32.1407 35.2313 32.1343 35.2097L32.1279 35.1885L32.1221 35.1703C32.0956 35.0638 32.1061 34.9387 32.1148 34.8339L32.1149 34.8338C32.1186 34.7883 32.1221 34.7467 32.1221 34.712V33.9482V28.8687V23.7128C32.1221 23.5755 32.1302 23.426 32.1385 23.2736V23.2736V23.2735V23.2735C32.1555 22.9595 32.1732 22.6332 32.1221 22.3761C32.1116 22.3233 32.1098 22.2909 32.1087 22.271C32.1078 22.2547 32.1074 22.2466 32.1031 22.2424C32.0989 22.2381 32.0908 22.2377 32.0748 22.2368C32.0549 22.2357 32.0227 22.2339 31.9702 22.2233C31.7804 22.1851 31.5906 22.1851 31.4007 22.2233C30.4066 22.3662 29.4126 22.5535 28.4277 22.7391L28.4277 22.7392L28.4273 22.7392L28.4273 22.7392L28.4273 22.7392L28.4272 22.7392L28.4272 22.7392L28.4272 22.7392L28.4271 22.7392L28.4271 22.7392C27.8322 22.8514 27.2407 22.9629 26.6545 23.0635C26.5893 23.0767 26.5062 23.0808 26.4174 23.0851C26.2478 23.0935 26.0577 23.1029 25.9331 23.1781C25.9141 23.1972 25.9046 23.1972 25.8952 23.1972C25.8857 23.1972 25.8762 23.1972 25.8572 23.2163C25.8192 23.2545 25.8192 23.5982 25.8572 23.6364C25.8822 23.6868 26.0065 23.7206 26.1099 23.7487C26.1633 23.7632 26.2111 23.7762 26.2369 23.7892C26.3508 23.8274 26.4552 23.8751 26.5596 23.9228C26.664 23.9706 26.7684 24.0183 26.8824 24.0565L26.9267 24.0711C27.0734 24.1189 27.388 24.2214 27.4899 24.3239C27.5172 24.3788 27.5052 24.5128 27.4963 24.6121C27.4929 24.6508 27.4899 24.6843 27.4899 24.7058V25.5078V27.9521V33.2607V34.0628C27.4899 34.0996 27.4938 34.1405 27.4979 34.1827C27.5064 34.2717 27.5156 34.367 27.4899 34.4447C27.338 34.903 26.5406 35.2085 26.123 35.2849C25.5914 35.3995 24.9459 35.3995 24.4903 35.0939C23.7347 34.6189 23.7883 33.33 23.8287 32.3592L23.8287 32.3591C23.8371 32.1591 23.8448 31.9726 23.8448 31.8094V26.348V23.8274C23.8448 23.6774 23.853 23.5193 23.8612 23.3584V23.3583V23.3583V23.3583V23.3582V23.3582V23.3582V23.3581V23.3581V23.3581V23.3581C23.8783 23.0272 23.8959 22.6843 23.8448 22.3761C23.8341 22.333 23.8325 22.3051 23.8314 22.2864C23.8305 22.2715 23.8299 22.2625 23.8255 22.2562C23.8185 22.2464 23.802 22.2435 23.7596 22.2359C23.7421 22.2327 23.7203 22.2288 23.6929 22.2233C23.5031 22.1469 23.2753 22.1469 23.0854 22.1851C22.6694 22.2344 22.2376 22.3153 21.8002 22.3973L21.8001 22.3974L21.7999 22.3974C21.5588 22.4426 21.3159 22.4881 21.0731 22.5288C20.1621 22.6816 19.289 22.8343 18.4159 22.987L18.4152 22.9871C18.3472 22.9969 18.2767 23.0042 18.2056 23.0115C17.9989 23.0328 17.7873 23.0547 17.6178 23.1399C17.5989 23.159 17.5799 23.159 17.5609 23.159C17.5419 23.159 17.5229 23.159 17.5039 23.1781C17.4763 23.2059 17.4889 23.3755 17.4978 23.4951V23.4951ZM53.309 22.147C53.3849 22.147 53.7266 22.147 53.7646 22.2234C53.7938 22.2528 53.778 22.4182 53.7692 22.5101L53.7692 22.5102L53.7692 22.5103L53.7692 22.5104C53.7666 22.5376 53.7646 22.5583 53.7646 22.5671V24.2093V25.928C53.7646 25.9637 53.7609 26.0068 53.757 26.0527C53.7483 26.1542 53.7385 26.2692 53.7646 26.3481V26.4244C53.8733 26.5338 53.9237 26.3105 53.9574 26.1607L53.9574 26.1606L53.9574 26.1606L53.9575 26.1605L53.9575 26.1605C53.9709 26.1011 53.9816 26.0534 53.9924 26.0425C54.3341 24.6294 54.9796 22.9872 56.4224 22.4143C56.6882 22.2997 56.954 22.2615 57.2198 22.2234C57.2629 22.2234 57.3208 22.2206 57.3873 22.2175L57.3879 22.2175L57.388 22.2175C57.6733 22.204 58.1147 22.1832 58.207 22.3379C58.2339 22.3921 58.2227 22.5038 58.2138 22.5915C58.2102 22.6275 58.207 22.6594 58.207 22.6817V23.4073V26.5772C57.2957 26.3863 56.2706 26.4244 55.3973 26.6154C54.9796 26.6918 54.5999 26.8064 54.2202 26.9973C54.1706 27.0173 54.1313 27.0294 54.0997 27.0392C54.0105 27.0668 53.9825 27.0755 53.9544 27.1883C53.9282 27.2938 53.9382 27.4539 53.9469 27.5932L53.9469 27.5933C53.9508 27.6557 53.9544 27.7139 53.9544 27.7612V28.8305V34.2919V35.1322C53.9544 35.1563 53.9506 35.1844 53.9466 35.2138C53.938 35.2773 53.9285 35.3473 53.9544 35.3995C54.0227 35.5025 54.2445 35.5747 54.3713 35.6159L54.4101 35.6287C54.505 35.6859 54.6094 35.7432 54.7139 35.8005L54.7141 35.8007C54.8184 35.8579 54.9227 35.9151 55.0176 35.9724C55.0322 35.9797 55.0482 35.9871 55.0649 35.9947C55.1346 36.0267 55.2147 36.0635 55.2454 36.1251C55.2834 36.1633 55.2834 36.6216 55.2454 36.6598C55.2185 36.6869 55.0961 36.6756 55.0001 36.6667L55 36.6667C54.9606 36.6631 54.9257 36.6598 54.9037 36.6598H53.9544H51.1827H48.6008C48.5412 36.6598 48.4668 36.6673 48.388 36.6753L48.3879 36.6753H48.3878C48.2152 36.6927 48.0215 36.7123 47.9173 36.6598H47.8034C47.773 36.6293 47.7913 36.3543 47.7998 36.226C47.8019 36.1939 47.8034 36.171 47.8034 36.1633C47.862 35.9865 48.1693 35.8551 48.4113 35.7517C48.4829 35.7211 48.5488 35.693 48.6008 35.6668C48.6286 35.6529 48.6615 35.6376 48.6972 35.621C48.8563 35.5472 49.0703 35.4479 49.1323 35.3231C49.1596 35.2682 49.1477 35.1342 49.1388 35.0349C49.1353 34.9961 49.1323 34.9627 49.1323 34.9412V34.1392V24.3239C49.1323 24.3144 49.1347 24.2953 49.1377 24.2714C49.1466 24.1998 49.1608 24.0852 49.1323 24.0566C49.0944 24.0184 48.9045 23.9802 48.8286 23.9802C48.6008 23.9038 48.3729 23.8274 48.1451 23.7892C48.1028 23.775 48.0488 23.7622 47.99 23.7482C47.7321 23.6868 47.383 23.6038 47.5376 23.2927C47.5635 23.2147 47.6422 23.2075 47.7377 23.1988C47.7825 23.1947 47.8309 23.1903 47.8793 23.1782C48.7147 23.0254 49.5405 22.8726 50.3663 22.7198C51.1922 22.5671 52.018 22.4143 52.8533 22.2615C52.9546 22.2106 53.0558 22.1937 53.1571 22.1767C53.2077 22.1682 53.2583 22.1597 53.309 22.147ZM67.6233 19.4354V22.4907C66.5981 22.0706 65.497 21.9942 64.3579 22.1088C62.8771 22.2234 61.4343 22.7963 60.3711 23.9038C59.2321 25.126 58.7005 26.8064 58.5486 28.4868C58.2449 31.6567 59.0042 36.0106 62.6493 36.8508C63.4846 37.0418 64.4338 37.0418 65.2692 36.8126C65.8007 36.6599 66.2943 36.4307 66.75 36.1252C66.7814 36.1041 66.8677 36.0307 66.9779 35.9371C67.267 35.6913 67.7202 35.306 67.7751 35.3613C67.8311 35.4176 67.8046 35.7015 67.7868 35.8931C67.7804 35.9618 67.7751 36.0186 67.7751 36.0488C67.7751 36.091 67.7694 36.1593 67.7626 36.2394V36.2395C67.7448 36.4496 67.7202 36.7402 67.7751 36.8508C67.8511 37.0036 68.3067 36.9272 68.4966 36.889C69.7116 36.7362 70.8886 36.5835 72.0657 36.4307C72.5378 36.3968 72.9799 36.3327 73.4453 36.2653L73.6224 36.2397C73.6604 36.2397 73.8882 36.2397 73.9262 36.2016C73.9641 36.1634 73.9641 35.7433 73.9262 35.7051C73.8625 35.609 73.5586 35.5398 73.3726 35.4974L73.3725 35.4974C73.3367 35.4892 73.3052 35.4821 73.2807 35.4759C73.2207 35.4558 73.1501 35.4357 73.0745 35.4141L73.074 35.414L73.0738 35.4139L73.0734 35.4138L73.0729 35.4137L73.0728 35.4136C72.8619 35.3536 72.6127 35.2826 72.4454 35.1704C72.3589 35.1124 72.36 35.0984 72.3655 35.0281L72.3655 35.028C72.3673 35.0057 72.3694 34.9779 72.3694 34.9412V33.0316V25.5843V18.2132C72.3694 18.011 72.3736 17.8045 72.3778 17.5966C72.3863 17.1765 72.3948 16.7506 72.3694 16.3419C72.3694 16.1351 72.3467 16.1339 72.1959 16.1263C72.1517 16.1241 72.0965 16.1214 72.0277 16.1127C71.8284 16.0841 71.629 16.1199 71.4297 16.1557C71.3632 16.1676 71.2968 16.1795 71.2304 16.1891C70.6039 16.3036 69.987 16.4182 69.37 16.5328C68.753 16.6474 68.1359 16.762 67.5094 16.8765C67.3653 16.9029 67.2122 16.9201 67.0563 16.9377C66.7602 16.9711 66.454 17.0056 66.1804 17.1057C66.1344 17.115 66.1017 17.1175 66.0787 17.1193C66.0543 17.1211 66.0407 17.1222 66.0334 17.1295C66.0241 17.1388 66.0248 17.1581 66.0265 17.2017C66.0274 17.2254 66.0286 17.2563 66.0286 17.2966C66.0286 17.5099 66.101 17.5287 66.246 17.5664C66.2828 17.576 66.3242 17.5867 66.3703 17.6022C66.712 17.7168 67.0158 17.8313 67.3195 17.9459L67.3373 17.9518L67.3692 17.9621C67.4737 17.9955 67.5906 18.033 67.6233 18.0987C67.6497 18.1786 67.6393 18.3141 67.6305 18.4278C67.6267 18.4771 67.6233 18.5223 67.6233 18.557V19.4354ZM67.6234 34.6738V25.2787V23.5218C67.6234 23.2927 67.5854 23.2545 67.3197 23.1017C66.7881 22.7962 66.1046 22.6816 65.5351 22.9108C64.6618 23.2545 64.2441 24.2857 64.0163 25.1259C63.5607 26.6536 63.5227 28.2958 63.5607 29.8999L63.562 29.9467C63.5996 31.3128 63.6452 32.969 64.396 34.1773C65.0795 35.2467 66.6362 35.514 67.6234 34.6738ZM80.3667 22.1607C80.3082 22.1596 80.2481 22.1584 80.1913 22.147C80.0394 22.1852 79.8876 22.2234 79.6977 22.1852C79.2231 22.2615 78.758 22.3475 78.2928 22.4334C77.8277 22.5193 77.3626 22.6053 76.888 22.6817C76.6412 22.7198 76.4039 22.7676 76.1667 22.8153L76.1666 22.8153L76.1665 22.8154C75.9292 22.8631 75.6919 22.9108 75.4451 22.949C75.3121 22.9787 75.179 22.9969 75.0481 23.0148C74.843 23.0428 74.6434 23.07 74.4579 23.14C74.439 23.1591 74.4105 23.1591 74.382 23.1591C74.3535 23.1591 74.3251 23.1591 74.3061 23.1782C74.2681 23.2163 74.2681 23.5983 74.3061 23.6364C74.3588 23.7161 74.5216 23.7588 74.6415 23.7903C74.6941 23.8041 74.7385 23.8158 74.7617 23.8274C74.8946 23.8847 75.018 23.9324 75.1414 23.9802L75.1415 23.9802L75.1416 23.9802C75.2649 24.028 75.3883 24.0757 75.5211 24.1329C75.5674 24.1562 75.6173 24.1724 75.6653 24.188C75.7747 24.2235 75.8744 24.2559 75.9008 24.3621C75.927 24.4676 75.917 24.6277 75.9083 24.7671C75.9044 24.8295 75.9008 24.8877 75.9008 24.935V30.4346V33.4517C75.9008 33.6399 75.909 33.8364 75.9173 34.0357C75.9343 34.443 75.9518 34.8621 75.9008 35.2467C75.9008 35.2551 75.9009 35.2629 75.9011 35.2702C75.9015 35.2853 75.9022 35.2981 75.9028 35.3093V35.3095V35.3096V35.3096C75.9043 35.3377 75.9052 35.3548 75.8993 35.3692C75.89 35.3918 75.8637 35.4074 75.796 35.4477L75.7489 35.4759C75.635 35.5332 75.5211 35.6 75.4072 35.6669L75.407 35.667C75.2931 35.7338 75.1793 35.8005 75.0655 35.8578L75.0267 35.8705C74.8999 35.9118 74.6781 35.9839 74.6098 36.087C74.5339 36.1633 74.5719 36.6216 74.6478 36.6598C74.7285 36.714 74.962 36.6914 75.1452 36.6736H75.1452C75.2204 36.6663 75.287 36.6598 75.3312 36.6598H81.1026C81.1912 36.6598 81.284 36.6641 81.3768 36.6683C81.5624 36.6768 81.748 36.6853 81.8999 36.6598H82.0138C82.0444 36.6291 82.0257 36.326 82.0173 36.1891V36.189C82.0153 36.1559 82.0138 36.1326 82.0138 36.1251C81.983 36.032 81.8267 35.9641 81.7285 35.9215C81.7059 35.9116 81.6863 35.9031 81.6721 35.896C81.5582 35.8387 81.4538 35.7814 81.3494 35.7241C81.245 35.6668 81.1405 35.6096 81.0266 35.5523C80.9983 35.538 80.97 35.5251 80.9424 35.5125C80.8221 35.4576 80.7158 35.4092 80.6849 35.2849C80.659 35.1805 80.6685 35.0405 80.6771 34.9135C80.6811 34.8546 80.6849 34.7986 80.6849 34.7502V33.8718V31.1984V24.935V22.7962C80.6849 22.7625 80.6882 22.7154 80.6919 22.6629C80.7007 22.5373 80.7117 22.3805 80.6849 22.2997C80.6317 22.1659 80.5038 22.1634 80.3667 22.1607ZM80.7228 18.5951C80.6468 20.8866 77.5713 21.8796 76.1665 20.0846C75.521 19.2443 75.483 18.0986 76.0526 17.2202C76.6221 16.3418 77.7232 15.9599 78.7484 16.189C79.8875 16.4182 80.7228 17.4111 80.7228 18.5951ZM97.3533 26.1571V35.3613C97.3196 35.3802 97.2862 35.3991 97.2531 35.4178C96.9509 35.5885 96.6703 35.747 96.3282 35.7814C96.3097 35.7907 96.2822 35.8023 96.2507 35.8156C96.1526 35.8568 96.0152 35.9146 95.9865 35.9724C95.9485 36.0488 95.9485 36.3925 95.9865 36.4689C96.0155 36.5565 96.0445 36.5548 96.1414 36.5491C96.1712 36.5474 96.2075 36.5453 96.2522 36.5453H97.1635H99.9732H102.631C102.675 36.5453 102.739 36.5517 102.81 36.559C102.985 36.5768 103.207 36.5994 103.315 36.5453C103.317 36.5453 103.32 36.5454 103.322 36.5457C103.325 36.5461 103.329 36.5468 103.332 36.5475C103.34 36.5496 103.349 36.5527 103.356 36.5556C103.376 36.5633 103.39 36.5689 103.39 36.5453C103.428 36.5071 103.428 36.0488 103.39 36.0106C103.352 35.9724 103.201 35.896 103.125 35.8578C103.03 35.8005 102.925 35.7432 102.821 35.686C102.717 35.6287 102.612 35.5714 102.517 35.5141C102.482 35.4906 102.436 35.4707 102.388 35.4499C102.281 35.4033 102.164 35.3525 102.137 35.2467C102.111 35.1659 102.122 35.0091 102.131 34.8835C102.132 34.8624 102.133 34.842 102.135 34.8231C102.136 34.7952 102.137 34.7704 102.137 34.7503V33.8337V28.1813V25.6606V24.8586C102.137 24.8355 102.134 24.8053 102.13 24.7724C102.121 24.6967 102.111 24.6063 102.137 24.5531C102.23 24.3676 102.62 24.2322 102.866 24.1468C102.924 24.1267 102.975 24.1093 103.011 24.0948C103.39 23.9802 103.77 23.942 104.188 23.942C104.719 23.9802 105.251 24.0948 105.555 24.5531C105.903 25.0435 105.9 25.6625 105.897 26.2332V26.2344V26.2356V26.2367C105.897 26.287 105.896 26.3369 105.896 26.3863V31.5421V34.2156V35.0558C105.896 35.0789 105.9 35.109 105.904 35.1419C105.912 35.2177 105.923 35.3081 105.896 35.3613C105.868 35.4191 105.73 35.4769 105.632 35.5182C105.601 35.5314 105.573 35.543 105.555 35.5523C105.441 35.6096 105.336 35.6669 105.232 35.7241C105.128 35.7814 105.023 35.8387 104.909 35.896C104.891 35.9053 104.863 35.9168 104.832 35.9301L104.832 35.9301C104.734 35.9714 104.596 36.0292 104.568 36.087C104.53 36.1633 104.53 36.5835 104.568 36.6217C104.654 36.7374 105.176 36.6997 105.523 36.6746C105.634 36.6666 105.727 36.6598 105.783 36.6598H111.212C111.272 36.6598 111.346 36.6674 111.425 36.6753C111.598 36.6927 111.791 36.7123 111.896 36.6598C111.939 36.6452 111.955 36.6474 111.96 36.6514C111.959 36.6569 111.961 36.6579 111.961 36.6569L111.962 36.6561C111.962 36.6554 111.962 36.6544 111.962 36.6535C111.961 36.6528 111.961 36.652 111.96 36.6514C111.961 36.6462 111.964 36.637 111.972 36.6217C112.009 36.5835 112.009 36.2015 111.972 36.1252C111.942 36.0361 111.775 35.9702 111.666 35.9272L111.666 35.9272C111.635 35.9149 111.609 35.9045 111.592 35.896C111.497 35.8387 111.393 35.7814 111.288 35.7241C111.184 35.6669 111.079 35.6096 110.984 35.5523L110.956 35.5409C110.783 35.4717 110.679 35.4299 110.643 35.2849C110.616 35.1794 110.626 35.0193 110.635 34.88C110.639 34.8176 110.643 34.7593 110.643 34.7121V33.6809V30.8929V26.0043C110.643 25.2405 110.605 24.4767 110.339 23.751C109.959 22.7199 109.086 22.147 108.023 21.9942C106.466 21.7651 104.833 22.1088 103.466 22.8726C103.087 23.0636 102.745 23.2927 102.403 23.5601C102.289 23.6747 102.137 23.8274 102.062 23.6747C102.007 23.5922 102.031 23.3913 102.049 23.2423C102.056 23.1842 102.062 23.1339 102.062 23.1018V22.3761C102.062 22.3539 102.065 22.3187 102.068 22.2791C102.077 22.1826 102.088 22.0595 102.062 22.0324C101.986 21.9942 101.606 21.9942 101.53 21.9942C101.404 21.9942 101.304 22.0204 101.188 22.0511C101.163 22.0575 101.138 22.064 101.112 22.0706L98.6063 22.5289L96.1004 22.9872C96.0612 22.9938 96.0265 22.9981 95.9959 23.0019C95.8487 23.0202 95.7966 23.0266 95.7966 23.2163C95.7966 23.2434 95.7945 23.2747 95.7923 23.3077C95.785 23.4147 95.7766 23.5399 95.8346 23.5983C95.8911 23.6835 96.0738 23.7265 96.2106 23.7587C96.2575 23.7697 96.299 23.7795 96.3282 23.7892L97.0116 24.0184C97.0876 24.0184 97.3154 24.0566 97.3533 24.1329C97.3818 24.1616 97.3676 24.2761 97.3587 24.3477V24.3478L97.357 24.361C97.3549 24.3786 97.3533 24.3926 97.3533 24.4003V26.1571ZM89.3084 27.5885V27.5881C89.3156 26.8291 89.3229 26.0539 89.2658 25.2787C89.1519 24.1711 88.8481 22.949 87.5951 22.7198C87.2154 22.6434 86.532 22.5289 86.2662 22.8344C86.0982 23.0034 85.9605 23.2182 85.8244 23.4305C85.7452 23.5541 85.6666 23.6768 85.5827 23.7892L83.6463 26.4244C83.6077 26.4763 83.569 26.5457 83.5289 26.6178L83.5289 26.6178C83.4507 26.7582 83.367 26.9087 83.2666 26.9591C83.2287 26.9973 82.849 26.9973 82.849 26.9591C82.8216 26.9316 82.8336 26.7856 82.8425 26.6774C82.846 26.6351 82.849 26.5986 82.849 26.5772V23.4837C82.849 23.448 82.8453 23.4048 82.8413 23.3589C82.8327 23.2575 82.8228 23.1424 82.849 23.0636C82.9018 22.9306 83.3226 22.8347 83.6375 22.7629C83.775 22.7316 83.8924 22.7049 83.9501 22.6816C85.0132 22.4143 86.1143 22.2233 87.2154 22.147C88.7722 22.0324 90.5188 22.0706 91.9616 22.758C93.1007 23.2927 93.8221 24.2475 94.0119 25.4696C94.1034 25.9603 94.0969 26.5001 94.0908 27.0102C94.0893 27.1354 94.0879 27.2588 94.0879 27.3792V33.7954V35.0176C94.0879 35.0513 94.0813 35.1017 94.0739 35.1579C94.0563 35.2923 94.0343 35.4602 94.0879 35.5141C94.1258 35.5523 94.3157 35.5905 94.3537 35.5905C94.5053 35.6286 94.6475 35.6667 94.7896 35.7048L94.7903 35.705C94.9327 35.7432 95.0751 35.7814 95.227 35.8196L95.248 35.8238C95.4196 35.8581 95.4548 35.8651 95.4548 36.0488C95.4548 36.0755 95.4555 36.0986 95.4562 36.1186V36.1186L95.4562 36.1191C95.4602 36.2412 95.4605 36.2505 95.2649 36.3161C94.9991 36.4307 94.7334 36.5452 94.4676 36.6216C93.0627 37.0417 90.8605 37.1563 89.8353 35.8578C89.8137 35.8252 89.7798 35.7617 89.7398 35.6866C89.639 35.4978 89.4992 35.2359 89.4176 35.2085C89.3171 35.1833 89.0835 35.4424 88.893 35.6538C88.7957 35.7618 88.7096 35.8572 88.6583 35.896C88.0508 36.4307 87.2534 36.7362 86.456 36.8508C84.9752 37.0417 83.3805 36.7362 82.4693 35.4377C81.7099 34.3301 81.558 32.6115 82.1275 31.3894C83.0444 29.3058 85.5708 28.9024 87.6697 28.5672C87.9177 28.5276 88.1598 28.489 88.3925 28.4486C88.5554 28.4486 88.7326 28.4199 88.9241 28.3889C89.0449 28.3693 89.1715 28.3488 89.3037 28.334C89.3037 28.088 89.3061 27.8396 89.3084 27.5894V27.589V27.5885ZM89.3038 29.0215V34.6739C88.8102 35.2467 87.785 35.3231 87.1775 34.903C86.608 34.5211 86.4561 33.7573 86.3801 33.1462C86.2662 32.2678 86.2662 31.2748 86.57 30.4346C86.9868 29.1768 88.1599 29.0982 89.2968 29.022L89.3038 29.0215ZM41.2346 28.334C41.2346 28.0875 41.237 27.8387 41.2393 27.5881C41.2465 26.8291 41.2538 26.0539 41.1967 25.2787C41.0828 24.1711 40.779 22.949 39.526 22.7199C39.1463 22.6435 38.4629 22.5289 38.1971 22.8344C38.0291 23.0034 37.8914 23.2182 37.7554 23.4305L37.7553 23.4305L37.7553 23.4306C37.6761 23.5541 37.5975 23.6768 37.5137 23.7892L35.5772 26.4244C35.5386 26.4763 35.4999 26.5457 35.4598 26.6178L35.4598 26.6179C35.3816 26.7582 35.2979 26.9087 35.1975 26.9591C35.1596 26.9973 34.7799 26.9973 34.7799 26.9591C34.7526 26.9317 34.7645 26.7857 34.7734 26.6774C34.7769 26.6352 34.7799 26.5987 34.7799 26.5772V23.5219C34.7799 23.4862 34.7762 23.443 34.7723 23.3971C34.7636 23.2957 34.7537 23.1806 34.7799 23.1018C34.835 22.9632 35.2698 22.8649 35.5914 22.7922C35.713 22.7647 35.8185 22.7408 35.881 22.7199C36.9441 22.4525 38.0452 22.2615 39.1084 22.1852C40.6651 22.0706 42.4117 22.1088 43.8545 22.7962C44.9936 23.3309 45.715 24.2857 45.9049 25.5078C45.9963 25.9985 45.9899 26.5383 45.9838 27.0484V27.0484C45.9823 27.1736 45.9808 27.297 45.9808 27.4174V33.8336V35.0558C45.9808 35.0896 45.9742 35.1399 45.9669 35.1961C45.9492 35.3306 45.9273 35.4984 45.9808 35.5523C46.0188 35.5905 46.2086 35.6287 46.2466 35.6287C46.3985 35.6669 46.5409 35.705 46.6833 35.7432L46.6834 35.7433C46.8258 35.7815 46.9681 35.8196 47.1199 35.8578L47.141 35.862C47.3126 35.8963 47.3477 35.9033 47.3477 36.087C47.3477 36.114 47.3485 36.1372 47.3491 36.1573C47.3531 36.2794 47.3534 36.2887 47.1579 36.3543L47.1578 36.3543L47.1578 36.3543C46.892 36.4689 46.6263 36.5835 46.3605 36.6598C44.9556 37.0799 42.7534 37.1945 41.7283 35.896C41.7066 35.8634 41.6728 35.7999 41.6327 35.7248C41.5319 35.536 41.3921 35.2741 41.3106 35.2467C41.1947 35.2176 40.9021 35.5664 40.7192 35.7842C40.6624 35.852 40.6162 35.907 40.5892 35.9342C39.9817 36.4689 39.1843 36.7744 38.387 36.889C36.9062 37.0799 35.3114 36.7744 34.4002 35.4759C33.6408 34.3683 33.4889 32.6497 34.0584 31.4276C34.9728 29.3497 37.488 28.9428 39.5566 28.6082C39.8073 28.5676 40.0515 28.5281 40.2854 28.4868C40.4246 28.4693 40.5638 28.4438 40.7066 28.4176C40.8755 28.3866 41.0495 28.3547 41.2346 28.334ZM41.2347 29.0215V34.6739C40.7411 35.2467 39.7159 35.3231 39.1084 34.903C38.5389 34.5211 38.387 33.7573 38.3111 33.1462C38.1972 32.2678 38.1972 31.2748 38.5009 30.4346C38.9177 29.1768 40.0908 29.0982 41.2277 29.022L41.2347 29.0215Z" fill="#1F2430"/>
</svg>
