<svg width="75" height="37" viewBox="0 0 75 37" fill="none" xmlns="http://www.w3.org/2000/svg">
<rect width="75" height="37" rx="6" fill="#F4BF46"/>
<path d="M37.832 19.576V21.096H40.84V24.248H42.424V21.096H45.432V19.576H42.424V16.456H40.84V19.576H37.832ZM50.3157 25V14.632H48.6517C48.4277 15.72 47.4037 16.552 45.9157 16.584V17.896H48.4277V25H50.3157ZM59.8537 14.904C59.4057 14.616 58.6057 14.392 57.6457 14.392C54.4297 14.392 52.0777 16.664 52.0777 20.424C52.0777 23.08 53.5817 25.24 56.2217 25.24C58.3977 25.24 60.1577 23.8 60.1577 21.64C60.1577 19.512 58.7017 18.136 56.6377 18.136C55.5337 18.136 54.5417 18.536 53.9977 19.368C54.1737 17.352 55.5817 16.056 57.5337 16.056C58.3817 16.056 58.9257 16.264 59.3097 16.472L59.8537 14.904ZM54.2057 21.672C54.2057 20.456 55.1337 19.736 56.2217 19.736C57.3097 19.736 58.2377 20.456 58.2377 21.672C58.2377 22.872 57.3097 23.608 56.2217 23.608C55.1657 23.608 54.2057 22.856 54.2057 21.672Z" fill="#1F2430"/>
<path fill-rule="evenodd" clip-rule="evenodd" d="M17.9672 17.5625C18.1145 17.3145 18.4573 17.3006 18.6315 17.5101L20.2597 19.4647L22.036 15.5579C22.1792 15.2405 22.6513 15.2347 22.7887 15.5751L25.1402 21.4545H27.7273V10.4091C27.7273 10.1833 27.544 10 27.3182 10H13.4091C13.1833 10 13 10.1833 13 10.4091V21.4545H15.6321L17.9672 17.5625ZM17.0909 12.4545C17.9925 12.4545 18.7273 13.1885 18.7273 14.0909C18.7273 14.9925 17.9925 15.7273 17.0909 15.7273C16.1885 15.7273 15.4545 14.9925 15.4545 14.0909C15.4545 13.1885 16.1885 12.4545 17.0909 12.4545ZM28.5455 14.7602V25.5455H16.9813L16.8487 26.4144C16.8135 26.6459 16.9796 26.8611 17.2161 26.8832L29.4389 27.9975C29.6639 28.018 29.8627 27.8527 29.8832 27.6277L30.9984 15.4057C31.0188 15.1807 30.8535 14.9819 30.6285 14.9615C30.2691 14.929 29.9962 14.9046 29.7843 14.8856C29.2784 14.8403 29.1198 14.8261 28.9616 14.8088C28.8895 14.8009 28.8174 14.7923 28.7123 14.7799C28.6646 14.7742 28.61 14.7678 28.5455 14.7602ZM27.7273 22.2727H13V24.3182C13 24.544 13.1833 24.7273 13.4091 24.7273H27.3182C27.544 24.7273 27.7273 24.544 27.7273 24.3182V22.2727Z" fill="#1F2430"/>
</svg>
