<svg width="179" height="29" viewBox="0 0 179 29" fill="none" xmlns="http://www.w3.org/2000/svg">
<path fill-rule="evenodd" clip-rule="evenodd" d="M1.22393 14.0372C1.22393 10.0266 4.13077 7.40426 6.88461 6.17021L7.03761 6.47872C6.11966 7.55851 5.50769 8.6383 5.50769 11.1064C5.50769 13.883 6.27265 15.734 7.34359 16.9681C7.64957 16.5053 7.95556 15.8883 7.95556 15.2713V11.2606L12.8513 7.71277L13.0043 8.02128C12.6983 8.48404 12.3923 9.10106 12.3923 10.0266V12.6489C12.3923 14.5 9.48547 16.5053 7.64957 17.1223C8.8735 18.3564 10.5564 18.8191 12.3923 18.8191C13.0043 18.8191 13.6162 18.8191 14.2282 18.6649V7.40426C12.5453 7.25 11.0154 6.94149 9.63846 6.47872C8.10855 6.01596 6.57863 5.55319 5.3547 5.55319C3.36581 5.55319 0.917949 6.17021 0.917949 9.10106V10.0266L0.458974 10.1809C0.152991 9.25532 0 8.32979 0 7.55851C0 4.01064 2.60085 0.925532 6.73162 0.925532C8.41453 0.925532 10.0974 1.3883 11.6273 1.85106C13.1573 2.31383 14.6872 2.7766 16.2171 2.7766C16.982 2.7766 17.441 2.31383 17.441 1.54255C17.441 0.771277 17.135 0.462766 16.5231 0.308511V0C18.359 0.308511 20.1949 1.3883 20.1949 3.70213C20.3479 6.01596 18.359 7.40426 14.9932 7.40426H14.6872V18.8191C16.8291 18.3564 18.359 17.4309 19.4299 15.5798L19.7359 15.734C18.512 19.5904 15.6051 23.2926 10.5564 23.2926C5.50769 23.2926 1.22393 20.2074 1.22393 14.0372ZM29.5275 21.75C29.5275 25.1436 26.3147 26.2234 23.1018 26.5319H23.4078V26.9946C29.5275 26.5319 34.1172 23.9095 34.1172 19.7446V10.3351C34.1172 9.56379 34.5762 9.10102 34.8822 8.79251V8.32975C34.5762 8.484 34.2702 8.63826 33.9642 8.63826C33.6582 8.63826 33.5052 8.63826 33.3523 8.484C32.8933 8.17549 31.2104 6.63294 30.9044 6.32443H30.5984L26.4676 10.1808V3.23932C26.4676 1.54251 27.3856 0.925493 27.8446 0.771238V0.462727C27.5386 0.308472 27.2326 0.308472 26.9266 0.308472C26.0087 0.308472 24.9377 0.771238 24.3258 1.69677H24.1728C23.8668 0.925493 22.9488 0.308472 21.8779 0.308472C21.2659 0.308472 20.807 0.462727 20.501 0.616982V0.925493C21.1129 1.07975 22.1839 1.69677 22.1839 2.93081V19.5904L21.4189 20.3617L24.4788 22.984H24.6317L27.6916 20.2074L26.3147 18.9734V10.7978L27.9976 9.25528L29.5275 10.7978V21.75ZM22.7957 2.77656C22.7957 1.69677 22.1837 1.23401 21.5718 0.77124C22.4897 0.925496 23.7137 1.54252 23.8666 2.93081V20.0532L23.5607 20.3617L25.5496 22.0585L24.7846 22.6755L22.1837 20.5159L22.7957 19.8989V2.77656ZM28.7623 25.4521C29.9862 24.6809 31.2101 23.7553 31.2101 21.9043V10.1809L29.3742 8.17554L28.4563 8.94681L29.9862 10.6436V21.75C30.1392 23.2926 29.5272 24.5266 28.7623 25.4521ZM42.6847 6.32446C40.8488 7.71276 38.2479 9.25531 36.412 10.1808H36.565V16.8138C36.565 18.5106 36.412 19.8989 36.259 20.516C37.7889 21.2872 40.0838 22.367 41.9197 23.1383H42.2257L47.5804 17.8936L47.2744 17.5851L44.5206 20.2074C43.2966 19.7447 41.3078 18.8191 40.6958 18.3564V15.5798L47.4274 11.2606V10.9521C46.4717 10.0849 45.4564 8.97696 44.5305 7.96663L44.5305 7.9666L44.5304 7.96653C43.9741 7.35946 43.45 6.78764 42.9907 6.32446H42.6847ZM42.6847 22.0585C40.8488 21.2872 39.3189 20.5159 37.789 19.7447C37.9419 19.2819 37.9419 18.5106 37.9419 16.8138V9.87231L36.871 10.4893V16.8138C36.871 18.5106 36.871 19.7447 36.718 20.2074C38.0949 20.9787 40.0838 21.9042 41.9197 22.6755L42.6847 22.0585ZM43.7556 13.1118L40.6958 15.1171V9.71814C41.6137 10.6436 42.6846 11.8776 43.7556 13.1117L43.7556 13.1118ZM41.6136 8.32983L40.8486 8.94686C41.7666 10.0266 42.9905 11.4149 44.2144 12.8032L45.1324 12.1862C43.7555 10.7979 42.5315 9.40962 41.6136 8.32983ZM173.951 21.75C173.951 25.1436 170.738 26.2234 167.526 26.5319V26.9946C173.645 26.5319 178.235 23.9095 178.235 19.7446V10.4893C178.235 9.71805 178.694 9.25528 179 8.94677V8.32975C178.694 8.484 178.388 8.63826 178.082 8.63826C177.776 8.63826 177.623 8.63826 177.47 8.484C177.011 8.17549 175.328 6.63294 175.022 6.32443H174.716L170.738 10.1808V3.23932C170.738 1.54251 171.656 0.925493 172.115 0.771238V0.462727C171.809 0.308472 171.503 0.308472 171.197 0.308472C170.279 0.308472 169.208 0.771238 168.597 1.69677H168.444C168.138 0.925493 167.22 0.308472 166.149 0.308472C165.537 0.308472 165.078 0.462727 164.772 0.616982V0.925493C165.384 1.07975 166.455 1.69677 166.455 2.93081V19.5904L165.69 20.3617L168.75 22.984H169.055L172.115 20.2074L170.738 18.9734V10.7978L172.421 9.25528L173.951 10.7978V21.75ZM165.996 0.77124C166.455 1.07975 167.22 1.69677 167.22 2.77656V19.7446L166.608 20.3617L169.208 22.5212L169.973 21.9042L167.984 20.2074L168.29 19.8989V2.93081C168.137 1.54252 166.914 0.925496 165.996 0.77124ZM175.481 21.75C175.481 23.6011 174.257 24.5266 173.033 25.2979C173.951 24.5266 174.563 23.2926 174.41 21.75V10.6436L172.88 8.94681L173.645 8.17554L175.481 10.1809V21.75ZM76.0368 10.1808C77.8727 9.25531 80.4735 7.71276 82.3094 6.32446H82.6154C83.0827 6.79561 83.6169 7.37917 84.1754 7.98932C85.0798 8.9773 86.0479 10.035 86.8992 10.7979V11.1064L80.3205 15.4255V18.2021C81.0855 18.6649 82.9214 19.5904 84.1453 20.0532L86.8992 17.4308L87.2052 17.7394L81.8505 22.984H81.5445C79.7086 22.2128 77.4137 21.133 75.8838 20.3617C76.0368 19.7447 76.1898 18.3564 76.1898 16.6596V10.1808H76.0368ZM77.2608 19.7447C78.7907 20.516 80.3206 21.2872 82.1564 22.0585L81.5445 22.5213C79.7086 21.75 77.7197 20.8244 76.3428 20.0532C76.4958 19.5904 76.4958 18.3564 76.4958 16.6595V10.3351L77.4137 9.87231V16.8138C77.4137 18.5106 77.4137 19.2819 77.2607 19.7447L77.2608 19.7447ZM80.3206 14.9628L83.3804 12.9575C82.3094 11.7234 81.2385 10.4894 80.3206 9.56384V14.9628ZM80.3206 8.94686L81.2385 8.32983C82.1565 9.40962 83.3804 10.7979 84.6043 12.1862L83.6864 12.8032L83.6856 12.8024L83.6855 12.8023C82.4619 11.4143 81.2383 10.0264 80.3206 8.94686ZM93.0188 2.46805V18.6649C93.0188 19.2819 93.6308 20.0532 94.2428 20.2074L95.1607 19.2819L95.4667 19.5904L92.1009 23.1383H91.7949C90.571 22.8297 88.7351 21.5957 88.7351 19.5904V4.47336L87.8171 3.54783L86.7462 4.62762L86.4402 4.31911L90.265 0.308472H90.571L93.0188 2.46805ZM90.1119 19.1277C90.1119 20.8245 91.3358 21.5958 92.5597 21.9043L91.7948 22.6756C90.5708 22.3671 89.1939 21.2873 89.1939 19.5905V4.3192L87.97 3.23942L88.7349 2.46814L90.1119 3.85644V19.1277ZM96.9965 10.1808C98.8324 9.25531 101.433 7.71276 103.269 6.32446H103.575C104.042 6.79561 104.577 7.37917 105.135 7.98932C106.039 8.9773 107.008 10.035 107.859 10.7979V11.1064L101.28 15.4255V18.2021C101.892 18.6649 103.881 19.5904 105.105 20.0532L107.859 17.4308L108.165 17.7394L102.81 22.984H102.504C100.668 22.2128 98.3734 21.133 96.8435 20.3617C96.9965 19.7447 97.1495 18.3564 97.1495 16.6596V10.1808H96.9965ZM98.2206 19.7447C99.7504 20.516 101.28 21.2872 103.116 22.0585L102.504 22.5213C100.668 21.75 98.6794 20.8244 97.3025 20.0532C97.4555 19.5904 97.4555 18.3564 97.4555 16.6595V10.3351L98.3734 9.87231V16.8138C98.3734 18.5106 98.3734 19.2819 98.2204 19.7447L98.2206 19.7447ZM101.28 14.9628L104.34 12.9575C103.269 11.7234 102.198 10.4894 101.28 9.56384V14.9628ZM101.433 8.94686L102.198 8.32983C103.116 9.40962 104.34 10.7979 105.564 12.1862L104.799 12.8032L104.798 12.8024L104.798 12.8023C103.575 11.4143 102.351 10.0264 101.433 8.94686ZM129.431 10.7979V18.6649C129.431 19.2819 130.043 20.0532 130.655 20.0532L131.573 19.1277L131.879 19.4362L128.513 22.984H128.36C127.136 22.6755 125.3 21.5957 125.3 19.4362V10.4894L124.382 9.56382L123.311 10.4894L123.005 10.1808L126.83 6.32446H127.136L129.584 8.79255V10.1808L132.644 6.47872H132.95C133.562 7.09574 134.479 8.02127 135.397 8.63829L132.797 11.7234C132.43 11.4277 132.028 11.0612 131.642 10.7087C131.222 10.3256 130.82 9.95908 130.502 9.71808L129.431 10.7979ZM126.677 19.1276C126.677 20.8244 127.901 21.5957 129.125 21.9042L128.36 22.5212C127.136 22.2127 125.759 21.1329 125.759 19.4361V10.3351L124.688 9.25529L125.453 8.48401L126.677 9.87231V19.1276ZM130.808 9.40958C131.267 9.87235 132.032 10.6436 132.644 11.1064L133.255 10.3351C132.962 10.1134 132.599 9.78534 132.249 9.46987C131.869 9.12701 131.506 8.79898 131.267 8.63831L130.808 9.40958ZM135.703 20.6702L139.375 23.1383V22.984H139.681L142.894 19.7447C143.047 21.2872 144.577 22.6755 145.954 22.984H146.107L149.473 19.4362L149.167 19.1277L148.249 20.0532C147.637 19.8989 146.872 19.4362 146.872 18.5106V10.3351C146.872 9.71808 147.331 9.25531 147.637 8.9468V8.48404C147.331 8.63829 147.025 8.79255 146.719 8.79255C146.566 8.79255 146.413 8.79255 146.107 8.63829C145.954 8.48404 141.364 6.32446 141.364 6.32446H141.058C139.834 7.55851 138.151 8.79255 136.009 10.0266V10.3351C136.774 11.4149 137.998 12.3404 139.528 13.1117C139.07 13.4196 138.345 13.9195 137.62 14.4198L137.619 14.4209L137.618 14.4217L137.616 14.4226L137.615 14.4236C136.888 14.9247 136.162 15.4257 135.703 15.734V20.6702ZM140.14 21.9042L137.08 19.8989V15.2712L136.162 15.8883V20.3617L139.528 22.5212L140.14 21.9042ZM142.741 11.4149V13.883C140.293 13.266 137.539 11.5692 136.468 10.3351C136.621 10.1809 137.004 9.94948 137.386 9.7181C137.769 9.48671 138.151 9.25533 138.304 9.10107L142.741 11.4149ZM146.719 21.9043C145.495 21.4415 144.271 20.6702 144.271 18.9734V10.4894L139.681 8.17554C139.605 8.25266 139.452 8.36835 139.299 8.48405C139.146 8.59974 138.993 8.71543 138.916 8.79256L143.353 11.1064V19.4362C143.353 20.9787 144.883 22.2128 145.954 22.6755L146.719 21.9043ZM142.741 14.3458V19.2819L141.517 20.516L139.834 19.4362V13.266C140.572 13.638 141.409 13.9103 142.186 14.1631L142.186 14.1633C142.376 14.2249 142.561 14.2853 142.741 14.3458ZM109.542 20.516V10.1808L115.05 6.32446H115.356C116.427 6.78723 119.945 8.32978 120.251 8.48404C120.315 8.48404 120.378 8.5105 120.452 8.54151C120.557 8.58536 120.684 8.63829 120.863 8.63829C121.087 8.63829 121.311 8.55563 121.595 8.45081C121.699 8.41245 121.811 8.37111 121.934 8.32978V8.9468C121.628 9.25531 121.169 9.87234 121.169 10.3351V19.1277C121.169 21.133 121.628 22.367 122.393 23.1383V23.4468C121.169 24.6808 118.415 27.6117 117.191 29H117.038C115.815 28.383 113.826 27.766 112.296 27.766C111.072 27.766 109.695 28.0745 108.777 28.8457L108.471 28.6915C109.389 26.5319 111.378 24.2181 113.979 24.2181C115.509 24.2181 117.65 24.8351 119.486 25.9149C118.262 24.5266 117.191 21.9043 117.191 19.8989L113.979 22.984H113.673L109.542 20.516ZM109.236 27.9202C109.848 27.1489 110.919 26.5319 112.143 26.5319C114.132 26.5319 116.12 27.1489 117.497 27.7659L116.885 28.5372C115.814 27.9202 113.673 27.4574 112.143 27.4574C110.766 27.4574 110.001 27.6116 109.236 28.0744V27.9202ZM113.367 22.6755L114.132 22.0585L110.919 19.7447V9.87231L110.001 10.4893V20.3617L113.367 22.6755ZM113.673 8.02124L118.262 9.8723V19.5904C118.262 21.5957 119.027 23.2925 120.251 24.8351L119.486 25.6063C118.109 23.9095 117.191 21.75 117.191 19.7446V10.4893L113.673 8.94677V8.02124ZM116.886 19.2819V10.7978L113.826 9.40955V19.1276L115.815 20.3617L116.886 19.2819ZM156.204 10.0325L160.029 6.32446H160.335C160.641 6.63297 162.477 8.32978 162.783 8.48404C162.936 8.63829 163.089 8.63829 163.242 8.63829C163.548 8.63829 163.854 8.48404 164.16 8.32978V8.9468C163.854 9.25531 163.395 9.87234 163.395 10.4894V20.3617C161.712 20.8245 160.335 21.75 158.805 23.4468H158.652L156.051 22.8298V24.9894L157.428 26.2234L154.215 29H154.062L151.003 26.3777L151.768 25.4521V21.75C151.462 21.75 150.85 21.5957 150.544 21.4415V20.9787C150.85 20.8245 151.921 19.8989 151.921 19.1277V10.6436L151.003 9.71808L149.932 10.7979L149.626 10.4894L153.451 6.63297H153.757L156.204 9.10106V10.0325ZM152.226 25.7606L151.614 26.3776L154.062 28.5372L154.827 27.9202L152.838 26.2234L153.144 25.9149V9.87231L151.767 8.48401L151.156 9.10103L152.226 10.1808V25.7606ZM159.111 10.7979V19.7447C158.978 19.6774 158.495 19.5808 157.929 19.4676C157.198 19.3213 156.329 19.1474 155.898 18.9735V10.7979L157.581 9.25537L159.111 10.7979ZM158.652 22.9841C158.805 22.6756 159.111 22.3671 159.264 22.2128L155.898 21.5958V22.5213L158.652 22.9841ZM159.57 10.7979L157.887 9.10111L158.652 8.32983L160.488 10.1809V19.282L159.57 19.7447V10.7979ZM9.35598 4.97131C11.0958 5.47016 12.9994 6.01594 14.9932 6.01594C17.9 6.01594 19.4299 5.39892 19.7359 3.54785H19.8889C19.7359 5.86168 17.9 6.94147 14.9932 6.94147C13.0255 6.94147 11.1896 6.40987 9.48549 5.91643C8.00971 5.48911 6.63279 5.0904 5.35472 5.0904C3.67181 5.0904 1.83592 5.55317 1.07096 6.94147H0.917969C1.52993 4.93615 3.51882 4.16487 5.35472 4.16487C6.54332 4.16487 7.89167 4.55147 9.35598 4.97131ZM4.43679 8.32983C3.05987 9.71813 1.83594 11.5692 1.83594 14.0373C1.83594 19.899 5.66072 22.8298 10.7094 22.8298C13.7693 22.8298 15.9112 21.133 17.1351 19.899L16.9821 19.7447C15.6052 20.9788 13.6163 21.9043 10.5565 21.9043C6.57867 21.9043 2.75389 19.4362 2.75389 14.0373C2.75389 11.8777 3.51884 9.71813 4.43679 8.32983ZM9.33241 10.6437V14.9628C9.33241 15.5798 8.87344 16.0426 8.41446 16.5054H8.26147C8.26147 16.3667 8.29238 16.228 8.32641 16.0754C8.3681 15.8884 8.41446 15.6803 8.41446 15.4256V11.415L9.33241 10.6437ZM55.6889 14.0372C55.6889 10.0266 58.5957 7.40426 61.3495 6.17021L61.5025 6.47872C60.4316 7.71277 59.8196 8.79255 59.8196 11.1064C59.8196 13.883 60.5846 15.734 61.6555 16.9681C61.9615 16.5053 62.2675 15.8883 62.2675 15.2713V11.2606L67.3162 7.55851L67.4692 7.86702C67.0102 8.48404 66.8572 9.10106 66.8572 10.0266V12.6489C66.8572 14.5 63.9504 16.5053 62.1145 17.1223C63.3384 18.3564 65.0213 18.8192 66.8572 18.8192C67.4692 18.8192 68.0812 18.8192 68.6931 18.6649V7.40426C67.0102 7.25 65.4803 6.94149 64.1034 6.47872C62.5735 6.01596 61.0436 5.55319 59.8196 5.55319C57.8307 5.55319 55.3829 6.17021 55.3829 9.10106V10.0266L55.0769 10.1809C54.7709 9.25532 54.6179 8.32979 54.6179 7.55851C54.6179 4.01064 57.2188 0.925532 61.3495 0.925532C63.0324 0.925532 64.7154 1.3883 66.2453 1.85106C67.7752 2.31383 69.3051 2.7766 70.835 2.7766C71.6 2.7766 72.0589 2.31383 72.0589 1.54255C72.0589 0.771277 71.753 0.462766 71.141 0.308511V0C72.9769 0.308511 74.8128 1.3883 74.8128 3.70213C74.8128 6.47872 72.8239 7.71277 69.4581 7.71277H69.1521V19.1277C71.294 18.6649 72.8239 17.7394 73.8948 15.8883L74.2008 16.0426C72.9769 19.8989 70.0701 23.6011 65.0213 23.6011C59.9726 23.2926 55.6889 20.2074 55.6889 14.0372ZM63.8208 4.97131C65.5607 5.47016 67.4642 6.01594 69.458 6.01594C72.3649 6.01594 73.7418 5.39892 74.2008 3.54785H74.3538C74.2008 5.86168 72.3649 6.94147 69.458 6.94147C67.4903 6.94147 65.6544 6.40987 63.9503 5.91643C62.4746 5.48911 61.0976 5.0904 59.8196 5.0904C58.1367 5.0904 56.3008 5.55317 55.5358 6.94147H55.3828C56.1478 4.93615 58.1367 4.16487 59.8196 4.16487C61.0082 4.16487 62.3565 4.55147 63.8208 4.97131ZM58.9016 8.32983C57.5247 9.71813 56.3008 11.5692 56.3008 14.0373C56.3008 19.899 60.1256 22.8298 65.1743 22.8298C68.2341 22.8298 70.376 21.133 71.5999 19.899L71.4469 19.7447C70.07 20.9788 68.0811 21.9043 65.0213 21.9043C61.0435 21.9043 57.2187 19.4362 57.2187 14.0373C57.2187 11.8777 57.9837 9.71813 58.9016 8.32983ZM63.7975 10.6437V14.9628C63.7975 15.5798 63.3385 16.0426 62.8795 16.3511H62.7266C62.7266 16.2125 62.7575 16.0738 62.7915 15.9211C62.8332 15.7341 62.8795 15.5261 62.8795 15.2713V11.2607L63.7975 10.6437Z" fill="#1F2430"/>
</svg>
